<!--?xml version="1.0" encoding="utf-8"?-->
<!-- Generator: Adobe Illustrator 18.1.1, SVG Export Plug-In . SVG Version: 6.00 Build 0)  -->

<svg version="1.1" id="_x32_" xmlns="http://www.w3.org/2000/svg" xmlns:xlink="http://www.w3.org/1999/xlink" x="0px" y="0px" viewBox="0 0 512 512" style="width: 48px; height: 48px; opacity: 1;" xml:space="preserve">
<style type="text/css">
	.st0{fill:#4B4B4B;}
</style>
<g>
	<path class="st0" d="M412.854,54.264l-1.75-0.616L257.485,0l-59.965,93.647l-4.049,32.905l-91.828,94.864l33.354,28.537
		l-12.635,26.793l7.292,9.537l-47.467,78.415l58.884,18.048L62.854,512H333.89L449.146,91.949L412.854,54.264z M311.299,482.375
		H115.405l59.036-97.551l54.226,16.624l66.13-64.958l-15.3-15.573l-56.859,55.862l-95.436-29.26l38.256-63.169l-8.616-11.266
		l14.584-30.949l-26.596-22.743l57.651-59.569l67.151,33.096l38.972-46.774l-83.302-35.699l0.791-6.485l43.722-68.284
		l126.598,44.216l19.729,20.476L311.299,482.375z" style="fill: rgb(76, 182, 172);"></path>
</g>
</svg>
