<?xml version="1.0" encoding="UTF-8" standalone="no"?>
<svg
   xmlns:dc="http://purl.org/dc/elements/1.1/"
   xmlns:cc="http://creativecommons.org/ns#"
   xmlns:rdf="http://www.w3.org/1999/02/22-rdf-syntax-ns#"
   xmlns:svg="http://www.w3.org/2000/svg"
   xmlns="http://www.w3.org/2000/svg"
   viewBox="0 0 257.33334 257.33334"
   height="257.33334"
   width="257.33334"
   xml:space="preserve"
   id="svg2"
   version="1.1"><metadata
     id="metadata8"><rdf:RDF><cc:Work
         rdf:about=""><dc:format>image/svg+xml</dc:format><dc:type
           rdf:resource="http://purl.org/dc/dcmitype/StillImage" /></cc:Work></rdf:RDF></metadata><defs
     id="defs6" /><g
     transform="matrix(1.3333333,0,0,-1.3333333,0,257.33333)"
     id="g10"><g
       transform="scale(0.1)"
       id="g12"><path
         id="path14"
         style="fill:#ffffff;fill-opacity:1;fill-rule:evenodd;stroke:none"
         d="M 0,1927.56 H 1927.56 V 0 H 0 v 1927.56" /><path
         id="path16"
         style="fill:#ffffff;fill-opacity:1;fill-rule:evenodd;stroke:none"
         d="m 729.656,1400.04 -2.898,196.94 117.183,68.61 173.989,117.19 71.52,2.89 74.41,-79.97 40.1,-265.79 -54.36,-97.13 -225.678,5.79 -194.266,51.47" /><path
         id="path18"
         style="fill:#ffffff;fill-opacity:1;fill-rule:evenodd;stroke:none"
         d="m 498.184,837.066 59.925,168.644 117.184,139.91 59.934,120.08 25.839,39.87 428.414,65.73 85.77,-134.34 239.94,-574.112 -82.88,-102.703 -217.21,-363.137 -51.24,-11.36 -397.223,-11.363 -277.141,308.555 -45.672,257.09 54.36,97.136" /><path
         id="path20"
         style="fill:#fcd205;fill-opacity:1;fill-rule:evenodd;stroke:none"
         d="m 1046.67,1274.16 c 0,0 -14.26,2.9 25.63,11.59 40.09,8.46 40.32,16.93 51.45,28.52 11.37,11.36 17.16,37.2 17.16,65.72 0,28.51 14.26,111.39 11.36,134.11 -2.67,22.95 -51.46,108.5 -71.29,120.08 -20.05,11.36 -242.832,31.41 -242.832,31.41 l -68.617,-54.36 -51.461,-48.34 11.586,-154.39 c 0,0 -14.484,-48.57 -11.586,-68.39 2.895,-20.05 31.633,-43 42.996,-54.36 11.364,-11.59 54.137,-57.48 68.395,-71.52 14.48,-14.25 17.379,-28.51 51.461,-17.15 34.312,11.37 54.359,11.37 80.203,31.41 25.621,20.06 85.545,45.67 85.545,45.67" /><path
         id="path22"
         style="fill:#ffffff;fill-opacity:1;fill-rule:evenodd;stroke:none"
         d="m 915.234,1517 c 8.688,22.95 20.047,65.72 39.875,79.98 20.051,14.25 63.051,26.06 88.671,22.94 25.84,-2.89 74.18,-28.51 85.77,-48.56 11.36,-20.06 11.36,-100.03 11.36,-100.03 l -5.79,-65.72 -39.88,2.89 -85.77,34.31 h -14.259 c 0,0 -14.258,-5.57 -57.254,17.15 -42.777,22.95 -31.414,34.09 -22.723,57.04" /><path
         id="path24"
         style="fill:#ffffff;fill-opacity:1;fill-rule:evenodd;stroke:none"
         d="m 823.895,1454.17 c 1.332,1.34 4.007,3.12 7.574,5.13 17.375,9.58 55.25,23.61 55.25,23.61 0,0 36.98,94.02 5.566,131.22 -31.187,37.21 -99.805,31.41 -99.805,31.41 0,0 -74.187,-42.77 -71.515,-59.92 2.894,-17.16 5.793,-77.08 8.691,-85.55 2.672,-8.69 14.258,-100.03 14.258,-100.03 l 25.617,11.36 37.207,28.51 c 0,0 8.688,5.57 17.157,14.26" /><path
         id="path26"
         style="fill:#fcd205;fill-opacity:1;fill-rule:evenodd;stroke:none"
         d="m 1369.48,591.336 c 0,0 18.05,-1.34 41.45,-3.121 6.01,-0.445 12.03,-0.668 18.04,-0.891 30.74,-1.113 57.7,-5.789 86.44,-9.355 18.93,-2.231 50.35,-14.258 52.58,-38.098 3.12,-35.199 -7.13,-73.965 22.72,-88.445 30.52,-20.719 98.69,-68.617 98.69,-68.617 l 20.05,-36.981 -59.92,-54.359 -294.3,-177.114 -134.12,45.672 v 108.496 l 5.57,145.7 -14.26,131.441 22.73,51.461 57.25,17.156 77.08,-22.945" /><path
         id="path28"
         style="fill:#fcd205;fill-opacity:1;fill-rule:evenodd;stroke:none"
         d="m 518.457,655.496 c -2.898,2.676 -55.031,-12.699 -58.371,-13.367 -24.281,-3.566 -55.027,-20.274 -55.027,-46.785 0,-13.59 -1.114,-27.625 -7.352,-39.879 -4.902,-9.578 -16.039,-24.059 -15.816,-27.176 -3.789,-10.473 -10.696,-25.176 -20.274,-31.414 -11.14,-1.117 -60.597,-5.57 -60.597,-5.57 h -42.997 l -25.621,-31.188 20.051,-83.101 -5.793,-65.496 -19.824,-74.411 48.34,-25.621 365.812,-97.133 82.871,25.622 42.778,105.82 -8.688,39.879 -39.879,79.98 c 0,0 -173.769,252.414 -199.613,289.84" /><path
         id="path30"
         style="fill:#231f20;fill-opacity:1;fill-rule:evenodd;stroke:none"
         d="m 704.703,1552.2 c -6.015,199.39 71.735,287.39 233.254,290.28 161.293,3.13 262.433,-81.98 283.153,-193.59 20.5,-111.39 8.69,-258.21 49.91,-334.4 40.99,-76.42 67.28,-135.01 137.9,-223.01 70.4,-88 114.29,-177.554 134.78,-286.273 20.72,-108.496 32.31,-159.734 -20.49,-215.656 -52.8,-55.696 -146.6,-146.59 -217,-43.887 -35.42,51.461 -39.2,115.402 20.5,128.988 38.1,8.914 65.5,6.016 93.79,-8.687 28.52,-14.703 35.2,-7.793 1.12,17.601 -34.31,25.399 -41.22,2.008 -29.41,43 11.81,40.993 27.18,114.731 -4.9,195.825 -14.93,37.425 -65.5,139.909 -112.95,165.079 -4.23,2.46 -16.71,7.58 -8.25,-2.9 12.7,-15.81 81.1,-116.511 100.48,-176.437 20.72,-64.387 23.61,-125.871 12.92,-164.86 -10.69,-39.21 -29.4,-54.804 -51.9,-54.804 -22.51,0 -43,-10.696 -43,40.992 0,51.906 5.34,130.105 -22.5,196.273 -27.85,65.942 -61.72,111.396 -69.07,139.236 -7.13,27.85 -23.39,102.7 -57.03,145.26 -33.86,42.55 -48.56,70.4 -30.97,118.96 17.6,48.35 4.46,61.49 -30.74,71.74 -35.2,10.25 -82.206,24.95 -93.792,48.56 -11.809,23.4 -4.457,70.4 21.832,81.99 26.51,11.81 70.4,-4.23 71.96,-38.1 1.56,-33.64 -14.7,-51.24 -10.25,-58.59 4.45,-7.35 27.85,-19.16 39.66,-6.02 11.58,13.37 14.7,54.37 2.89,92.46 -11.81,38.1 -17.6,64.61 -60.15,73.29 -42.55,8.92 -61.708,6.02 -82.204,-20.49 -20.5,-26.29 -29.41,-68.84 -23.394,-99.81 5.793,-30.74 -6.016,-13.14 -26.512,-11.58 -20.492,1.34 -14.703,2.9 -35.195,1.34 -20.5,-1.34 -13.145,11.8 -14.707,33.86 -1.336,22.05 -4.235,67.5 -35.2,85.1 -30.742,17.6 -83.547,-2.89 -82.207,-76.41 1.559,-73.3 26.512,-108.49 41.215,-81.99 14.703,26.29 7.352,13.15 -7.351,24.95 -14.704,11.59 -24.954,60.16 -8.915,74.64 16.266,14.7 35.204,14.7 45.672,6.01 10.25,-8.91 26.289,-38.32 23.395,-57.25 -2.899,-19.16 -4.457,-20.5 -23.395,-33.87 -19.156,-13.14 -26.511,-24.95 -48.566,-39.43 -22.055,-14.7 -30.742,-48.57 -13.145,-57.25 17.602,-8.91 19.161,-7.36 33.641,-29.41 14.703,-22.06 39.656,-32.3 101.367,-22.06 61.489,10.25 86.883,24.95 133.441,41.22 33.87,11.58 22.06,10.25 33.87,23.39 11.58,13.15 30.74,-5.79 13.14,-17.6 -17.6,-11.81 -57.25,-23.39 -86.658,-33.64 -29.187,-10.47 -63.047,-39.66 -124.539,-36.76 -61.707,2.9 -19.156,1.56 -38.316,2.9 -18.938,1.56 -27.848,-1.34 -7.352,-16.04 20.719,-14.71 19.16,-19.16 36.758,-24.95 17.602,-6.02 40.992,-6.02 69.062,4.23 27.848,10.47 98.255,41.21 120.305,55.92 21.83,14.7 39.43,-4.46 17.6,-19.16 -22.06,-14.7 -28.07,-10.25 -48.57,-23.4 -20.495,-13.36 -58.588,-35.19 -83.542,-58.81 -24.953,-23.39 -30.742,-24.95 -61.71,-26.29 -30.743,-1.56 -49.903,30.75 -63.047,45.45 -13.145,14.7 -11.809,23.39 -27.848,40.99 -16.039,17.6 -17.602,13.37 -20.496,-5.79 -2.899,-19.16 -24.949,-67.5 -44.109,-99.81 -18.938,-32.3 -20.5,-71.95 -17.602,-99.81 2.894,-27.84 -4.457,-30.74 -26.289,-63.043 -22.055,-32.301 -58.817,-127.652 -64.606,-158.398 -5.796,-30.746 -13.144,-94.012 -10.25,-130.551 2.895,-36.758 -7.351,-44.113 -33.859,-19.156 -26.289,24.949 -35.203,52.797 -33.644,89.554 1.339,31.414 5.57,53.469 9.582,65.055 4.007,11.586 0.222,19.602 -8.243,5.344 -18.047,-31.188 -18.937,-85.102 -14.484,-104.258 4.234,-18.937 5.793,-52.805 54.137,-98.246 48.566,-45.449 118.968,-108.496 177.558,-151.047 58.817,-42.555 79.313,-95.355 -7.351,-133.453 54.359,-73.516 83.765,-111.613 60.152,-159.953 48.566,27.847 29.856,93.566 6.461,111.168 -23.617,17.597 -9.359,31.191 11.137,17.82 20.496,-13.144 27.847,-39.433 108.718,-38.094 80.645,1.559 167.535,9.578 216.095,80.2 48.35,70.398 57.71,11.14 45.9,-30.075 -11.58,-40.992 -40.55,-133.672 4.9,-124.98 5.79,54.359 19.16,101.363 19.16,159.957 0,58.816 5.79,87.109 1.34,172.211 -4.46,81.984 30.96,87.555 67.5,87.555 36.76,0 24.95,-23.614 1.56,-22.055 -23.61,1.558 -48.35,-7.352 -49.9,-67.504 -1.56,-60.152 0,-54.359 10.24,-108.496 10.25,-54.36 11.81,-70.399 2.9,-130.551 -8.69,-60.152 -16.04,-92.453 23.61,-129.215 39.44,-36.758 99.59,-26.289 130.55,-2.894 30.75,23.394 89.34,77.75 142.14,95.351 53.02,17.598 108.72,30.742 138.13,60.149 29.18,29.406 21.83,49.906 -8.92,65.945 -30.74,16.266 -60.15,8.91 -83.54,35.199 -23.61,26.512 -35.2,85.106 -26.51,116.071 8.91,30.746 19.16,17.601 19.16,-4.457 0,-22.051 1.34,-42.551 23.39,-70.399 22.06,-27.848 42.55,-41.215 77.75,-63.047 35.2,-22.054 57.26,-57.254 13.15,-88.222 -43.89,-30.743 -68.84,-48.344 -105.6,-63.047 -36.54,-14.703 -96.69,-49.903 -133.45,-86.438 -36.76,-36.762 -57.25,-69.0662 -129.21,-69.0662 -71.74,0 -104.71,17.3792 -126.1,60.1522 -14.7,29.406 -22.05,24.953 -55.69,26.512 -33.87,1.336 -146.816,2.894 -234.816,1.336 -88,-1.336 -117.406,-16.039 -157.063,-48.344 C 707.598,95.1953 692.895,70.2461 618.039,95.1953 543.188,120.148 503.531,147.996 392.141,170.055 c -111.618,22.05 -51.465,11.804 -118.969,26.508 -67.504,14.484 -63.047,46.785 -54.137,73.296 8.688,26.289 30.746,67.504 11.586,121.641 -18.937,54.359 -11.586,110.055 39.652,110.055 51.465,0 99.809,-10.25 120.305,57.254 20.496,67.504 26.512,14.703 20.496,-2.899 -5.789,-17.597 -8.687,-65.941 -54.136,-73.293 -45.446,-7.351 -55.696,2.895 -83.766,2.895 -27.848,0 -39.434,-19.16 -24.949,-51.461 14.703,-32.305 30.965,-65.946 28.066,-93.793 -3.117,-27.848 -6.016,-38.098 -26.508,-64.606 -20.5,-26.289 -17.601,-39.656 19.16,-48.343 36.536,-8.914 102.7,-26.512 164.192,-41.219 61.707,-14.477 66.164,-14.477 173.097,-42.551 107.161,-27.848 136.571,22.059 145.258,82.211 8.91,60.148 -32.304,117.402 -70.398,174.66 -38.098,57.254 -79.09,123.195 -128.996,183.352 -49.903,60.152 -79.309,64.605 -104.258,51.461 -24.953,-13.368 -29.41,-10.469 -30.746,23.394 -1.559,33.637 -4.457,55.696 23.39,105.598 27.848,49.902 52.801,104.262 82.208,187.805 29.406,83.54 55.695,99.81 105.601,171.77 49.902,71.73 27.848,43.88 63.047,92.23 35.199,48.56 24.949,39.66 22.055,116.07 -2.895,76.19 -5.793,120.3 -8.688,220.11 z M 564.57,955.586 c 7.578,-9.133 18.27,12.473 29.41,20.719 10.024,9.133 14.258,22.277 12.032,34.975 -1.117,6.91 -12.254,4.68 -14.485,2.23 -6.906,-6.91 -5.343,-18.049 -10.246,-27.627 -5.57,-11.582 -24.285,-20.942 -16.711,-30.297 z m 630.7,306.544 c 15.82,-13.36 25.62,-24.95 34.31,-5.12 8.91,19.83 8.91,27.85 -12.48,35.87 -21.16,8.24 -30.74,16.93 -40.32,27.85 -9.58,11.13 -12.92,-7.8 -5.12,-26.29 9.57,-22.73 15.14,-25.4 23.61,-32.31 z m -330.61,182.02 c -10.914,2.23 -24.058,1.33 -31.414,-7.35 -2.894,-2.9 -1.558,-11.14 3.567,-13.37 6.683,-2.9 11.14,3.78 12.476,8.91 0.668,2.23 1.559,5.12 3.785,5.79 2.899,1.56 7.129,0.23 10.25,1.56 3.563,1.34 2.227,4.46 1.336,4.46 z m 51.91,-2.01 c 4.453,-6.68 12.473,-6.68 19.157,-9.58 3.566,-1.56 10.918,-3.79 13.144,1.34 5.125,16.26 -16.93,11.14 -27.176,11.14 -2.23,0 -7.355,0.67 -5.125,-2.9 z m 106.93,71.07 c 10.03,-0.44 23.62,-18.27 24.96,-38.99 0.22,-3.11 8.68,-2.89 10.47,0.23 4.68,8.24 1.34,17.37 -0.89,27.18 -1.79,8.02 -11.37,16.26 -19.39,19.82 -5.34,2.68 -10.91,3.57 -18.04,2.68 -1.79,-0.89 -8.02,-10.25 2.89,-10.92 z m -218.547,5.13 c -9.133,-0.67 -5.789,-7.8 -5.344,-13.59 12.7,-7.13 13.813,-23.18 16.485,-35.87 0.222,-4.9 7.574,-2.68 8.242,-1.12 5.57,10.25 -1.336,21.83 -3.785,33.87 -2.227,6.23 -6.465,13.36 -12.254,17.6 -0.891,0.89 -2.453,-0.89 -3.344,-0.89 z m 280.257,224.78 c -9.13,7.35 -23.39,10.25 -27.62,-1.78 -4.45,-10.25 -2.67,-20.72 -5.12,-31.86 0,-3.56 -4.46,-4.45 -6.91,-7.79 -3.56,-4.24 -2.67,-9.58 -0.89,-11.14 8.47,-8.69 24.06,8.46 35.42,14.48 8.47,5.35 20.72,-1.57 30.08,4.45 2.67,1.79 3.56,6.02 0.89,9.36 -6.02,10.47 -16.49,16.48 -25.85,24.28" /><path
         id="path32"
         style="fill:#231f20;fill-opacity:1;fill-rule:evenodd;stroke:none"
         d="m 1349.44,576.633 c 1.33,6.015 4.45,17.82 10.24,19.605 2.01,0.668 3.79,-0.226 4.46,-2.23 1.34,-3.785 -2.68,-25.399 -1.12,-30.297 1.79,-5.125 7.8,-4.457 12.03,-3.121 10.03,3.344 15.82,15.148 15.38,16.262 0,0.445 -0.23,0.445 -0.67,0.445 -1.56,-0.445 -2.9,-6.016 -7.35,-7.348 -2.9,-0.894 -5.12,-0.445 -6.02,2.449 -0.89,3.122 2.9,25.399 1.12,30.524 -1.56,5.121 -6.69,6.457 -11.59,4.898 -10.91,-3.566 -15.6,-20.273 -18.49,-30.074 h -0.22 l 1.56,22.945 -13.59,-4.453 -0.67,-47.457 12.7,4.235 c 0.22,8.246 0.67,17.601 2.23,23.617" /><path
         id="path34"
         style="fill:#231f20;fill-opacity:1;fill-rule:evenodd;stroke:none"
         d="m 1408.25,571.508 c 10.92,3.562 15.82,16.484 15.37,18.043 -0.22,0.445 -0.44,0.672 -0.89,0.672 -0.89,-0.446 -2.89,-7.801 -9.13,-9.805 -2.67,-0.891 -5.13,-0.223 -5.8,1.559 -0.89,2.675 -0.22,7.351 -0.22,11.363 l 0.45,21.387 14.93,4.902 -0.23,5.125 -14.93,-4.902 0.67,20.273 -13.36,-7.578 -0.67,-45.223 c 0,-4.902 -0.45,-9.133 0.44,-11.359 1.79,-5.797 7.8,-6.461 13.37,-4.457" /></g></g></svg>